<svg width="1294" height="308" viewBox="0 0 1294 308" fill="none" xmlns="http://www.w3.org/2000/svg">
<path d="M511.218 200.257L511.227 200.257L510.883 199.846C479.84 162.833 451.748 119.144 427.4 70.0034C383.395 -18.8157 358.876 -109.901 345.275 -180.42L345.236 -180.623L345.03 -180.623L344.548 -180.623L344.246 -180.623L344.303 -180.326C357.908 -109.731 382.458 -18.5239 426.527 70.4328C450.909 119.642 479.032 163.394 510.132 200.469C544.339 241.252 582.611 274.492 623.889 299.27L624.103 299.398L624.232 299.185L624.477 298.779L624.607 298.564L624.392 298.435C583.352 273.8 545.278 240.767 511.218 200.257Z" fill="#00FF85" stroke="#00FF85" stroke-width="0.5"/>
<path d="M359.265 -180.424L359.223 -180.623L359.02 -180.623L358.538 -180.623L358.232 -180.623L358.294 -180.323C372.853 -109.737 399.111 -16.7946 445.966 73.3885C471.056 121.683 499.765 164.501 531.29 200.652C565.96 240.407 604.525 272.628 645.898 296.386L646.114 296.51L646.239 296.295L646.475 295.89L646.601 295.673L646.383 295.547C605.1 271.838 566.625 239.692 532.025 200.012L531.951 199.927L531.941 199.927C500.503 163.855 471.861 121.139 446.826 72.9411C400.046 -17.1033 373.818 -109.904 359.265 -180.424Z" fill="#00FF85" stroke="#00FF85" stroke-width="0.5"/>
<path d="M372.999 -180.436L372.956 -180.632L372.755 -180.632L372.274 -180.632L371.963 -180.632L372.029 -180.329C387.523 -109.923 415.529 -15.3575 465.179 75.8822C490.968 123.262 520.224 165.146 552.146 200.373L552.331 200.205L552.146 200.373C587.26 239.109 626.08 270.301 667.539 293.06L667.758 293.181L667.878 292.961L668.105 292.546L668.225 292.327L668.006 292.207C626.648 269.496 587.918 238.378 552.866 199.716C521.002 164.561 491.777 122.738 466.034 75.4169C416.46 -15.6738 388.487 -110.096 372.999 -180.436Z" fill="#00FF85" stroke="#00FF85" stroke-width="0.5"/>
<path d="M286.787 -180.408L286.757 -180.623L286.54 -180.623L286.058 -180.623L285.771 -180.623L285.811 -180.338C295.545 -111.507 313.58 -28.4306 346.827 54.0644C368.102 106.858 393.684 154.297 422.876 195.089C454.977 239.946 491.887 277.336 532.57 306.218L532.774 306.363L532.919 306.159L533.193 305.772L533.337 305.568L533.133 305.424C492.538 276.606 455.713 239.295 423.67 194.515C394.532 153.797 368.987 106.422 347.735 53.6983C314.535 -28.6829 296.518 -111.652 286.787 -180.408Z" fill="#00FF85" stroke="#00FF85" stroke-width="0.5"/>
<path d="M331.05 -180.427L331.013 -180.632L330.804 -180.632L330.322 -180.632L330.024 -180.632L330.076 -180.338C342.719 -109.904 365.578 -20.5551 406.89 67.0244C430.526 117.139 458.053 161.825 488.709 199.824C522.426 241.626 560.395 275.903 601.56 301.69L601.769 301.821L601.903 301.614L602.158 301.218L602.295 301.005L602.08 300.871C561.014 275.135 523.123 240.934 489.476 199.218C458.876 161.281 431.388 116.659 407.777 66.613C366.527 -20.8393 343.687 -110.068 331.05 -180.427Z" fill="#00FF85" stroke="#00FF85" stroke-width="0.5"/>
<path d="M556.446 304.374C515.796 276.678 478.696 240.54 446.158 196.957L446.167 196.957L445.87 196.557C416.223 156.763 389.998 110.303 367.944 58.4653C332.102 -25.7634 312.509 -110.938 301.825 -180.42L301.792 -180.632L301.578 -180.632L301.096 -180.632L300.805 -180.632L300.849 -180.344C311.547 -110.787 331.158 -25.5131 367.05 58.8402C389.136 110.747 415.389 157.271 445.091 197.139L445.291 196.989L445.091 197.139C477.759 240.978 515.038 277.33 555.9 305.174L556.107 305.315L556.247 305.109L556.512 304.722L556.653 304.515L556.446 304.374Z" fill="#00FF85" stroke="#00FF85" stroke-width="0.5"/>
<path d="M467.358 197.541L467.358 197.55C437.402 158.807 410.689 113.469 387.955 62.7701C349.423 -23.1552 328.235 -110.404 316.569 -180.424L316.535 -180.632L316.323 -180.632L315.842 -180.632L315.546 -180.632L315.595 -180.341C327.265 -110.256 348.481 -22.8785 387.064 63.1633C409.935 114.174 436.839 159.784 467.032 198.717C500.238 241.538 537.867 276.852 578.9 303.668L579.111 303.806L579.247 303.594L579.502 303.198L579.636 302.989L579.428 302.853C538.494 276.1 500.943 240.862 467.805 198.119L467.358 197.541Z" fill="#00FF85" stroke="#00FF85" stroke-width="0.5"/>
<path d="M594.123 80.6703L594.114 80.6797C529.062 -8.0821 489.117 -104.258 467.061 -169.336C465.983 -172.518 464.584 -176.238 462.98 -180.471L462.919 -180.632L462.746 -180.632L462.246 -180.632L461.883 -180.632L462.012 -180.294C463.645 -175.993 465.06 -172.235 466.144 -169.025L466.144 -169.024C488.238 -103.833 528.273 -7.44655 593.505 81.4836C656.981 168.029 729.554 227.48 809.225 258.194L809.459 258.285L809.548 258.051L809.718 257.607L809.808 257.374L809.575 257.285C730.107 226.65 657.673 167.317 594.295 80.905L594.123 80.6703Z" fill="#00FF85" stroke="#00FF85" stroke-width="0.5"/>
<path d="M450.823 -180.456L450.764 -180.623L450.587 -180.623L450.087 -180.623L449.734 -180.623L449.851 -180.29C450.757 -177.716 451.568 -175.362 452.237 -173.253L452.475 -173.329L452.237 -173.253C473.264 -107.063 511.779 -9.05397 575.859 81.9322C638.211 170.467 710.273 231.852 790.048 264.369L790.278 264.463L790.373 264.233L790.553 263.799L790.649 263.567L790.416 263.472C710.835 231.028 638.919 169.772 576.655 81.3708C512.653 -9.50193 474.176 -107.411 453.157 -173.546L452.919 -173.47L453.157 -173.546C452.495 -175.624 451.711 -177.937 450.823 -180.456Z" fill="#00FF85" stroke="#00FF85" stroke-width="0.5"/>
<path d="M386.516 -180.439L386.471 -180.632L386.273 -180.632L385.792 -180.632L385.476 -180.632L385.548 -180.325C401.958 -110.259 431.739 -14.1843 484.193 77.9517C510.643 124.417 540.438 165.358 572.738 199.65L572.92 199.479L572.738 199.65C608.268 237.368 647.333 267.532 688.839 289.3L689.061 289.416L689.177 289.195L689.394 288.78L689.51 288.559L689.289 288.443C647.874 266.722 608.9 236.631 573.441 198.987L573.296 199.124L573.441 198.987C541.191 164.755 511.448 123.866 485.034 77.4686C432.658 -14.5175 402.92 -110.448 386.516 -180.439Z" fill="#00FF85" stroke="#00FF85" stroke-width="0.5"/>
<path d="M378.056 188.245L378.056 188.253C350.198 145.848 326.216 96.8926 306.769 42.7219C278.693 -35.4741 263.678 -113.673 255.844 -180.411L255.818 -180.632L255.596 -180.632L255.124 -180.632L254.843 -180.632L254.875 -180.353C262.722 -113.55 277.753 -35.2556 305.864 43.0417C325.439 97.5798 349.614 146.839 377.71 189.47C408.611 236.356 444.69 275.84 484.957 306.816L485.157 306.97L485.309 306.768L485.592 306.391L485.741 306.193L485.545 306.042C445.374 275.141 409.369 235.738 378.514 188.94L378.056 188.245Z" fill="#00FF85" stroke="#00FF85" stroke-width="0.5"/>
<path d="M611.232 79.4836L611.232 79.4924C545.246 -7.12788 503.912 -101.492 480.851 -165.474C479.537 -169.119 477.779 -173.489 475.751 -178.532C475.495 -179.174 475.231 -179.826 474.966 -180.476L474.903 -180.632L474.735 -180.632L474.225 -180.632L473.857 -180.632L473.993 -180.29C474.145 -179.904 474.303 -179.514 474.459 -179.13C474.59 -178.807 474.719 -178.487 474.842 -178.178L474.843 -178.177C476.873 -173.13 478.617 -168.788 479.928 -165.154C503.07 -100.972 544.569 -6.22584 610.906 80.6576C675.449 165.203 748.494 222.749 828.024 251.661L828.26 251.747L828.345 251.512L828.505 251.068L828.59 250.834L828.356 250.748C749.021 221.905 676.124 164.485 611.681 80.0713L611.232 79.4836Z" fill="#00FF85" stroke="#00FF85" stroke-width="0.5"/>
<path d="M412.89 -180.446L412.841 -180.632L412.648 -180.632L412.157 -180.632L411.833 -180.632L411.916 -180.319C430.072 -111.403 463.46 -12.6775 521.543 80.7888C580.25 175.266 650.516 242.471 730.393 280.535L730.617 280.641L730.725 280.419L730.933 279.995L731.044 279.768L730.816 279.659C651.12 241.693 580.986 174.621 522.373 80.2797L522.3 80.1617L522.291 80.1617C464.354 -13.1089 431.022 -111.625 412.89 -180.446Z" fill="#00FF85" stroke="#00FF85" stroke-width="0.5"/>
<path d="M399.798 -180.433L399.75 -180.623L399.555 -180.623L399.064 -180.623L398.744 -180.623L398.821 -180.313C416.119 -110.746 447.703 -13.2848 502.972 79.5965L503.187 79.4686L502.972 79.5965C530.073 125.128 560.369 165.144 593.037 198.503C628.964 235.202 668.247 264.357 709.791 285.134L710.017 285.247L710.127 285.021L710.335 284.596L710.444 284.374L710.222 284.263C630.564 244.412 561.109 175.388 503.808 79.0956C448.629 -13.6256 417.088 -110.942 399.798 -180.433Z" fill="#00FF85" stroke="#00FF85" stroke-width="0.5"/>
<path d="M540.234 80.3397L540.234 80.3481C479.751 -13.1746 444.697 -112.554 425.775 -180.44L425.724 -180.623L425.534 -180.623L425.043 -180.623L424.714 -180.623L424.802 -180.306C443.78 -112.182 479 -12.3061 539.878 81.5848C599.85 174.081 670.759 239.343 750.637 275.539L750.864 275.642L750.967 275.415L751.166 274.982L751.27 274.754L751.041 274.65C671.356 238.54 600.58 173.41 540.694 81.0487L540.234 80.3397Z" fill="#00FF85" stroke="#00FF85" stroke-width="0.5"/>
<path d="M438.44 -180.458L438.385 -180.632L438.202 -180.632L437.711 -180.632L437.37 -180.632L437.473 -180.307C437.737 -179.468 437.991 -178.65 438.217 -177.87L438.217 -177.869C458.149 -110.679 495.106 -11.0666 557.986 81.9567C619.177 172.472 690.681 235.801 770.522 270.148L770.75 270.246L770.85 270.018L771.039 269.584L771.139 269.354L770.908 269.255C691.261 234.992 619.891 171.794 558.797 81.4126L558.723 81.3026L558.713 81.3026C495.955 -11.5751 459.056 -111.045 439.15 -178.143C438.932 -178.88 438.696 -179.655 438.44 -180.458Z" fill="#00FF85" stroke="#00FF85" stroke-width="0.5"/>
<path d="M271.457 -180.405L271.429 -180.623L271.209 -180.623L270.737 -180.623L270.453 -180.623L270.489 -180.341C279.27 -112.425 295.785 -31.6782 326.435 48.7982C346.879 102.469 371.762 150.823 400.416 192.539L400.622 192.397L400.416 192.539C431.931 238.406 468.435 276.843 508.919 306.762L509.119 306.91L509.268 306.711L509.551 306.334L509.702 306.133L509.5 305.983C469.102 276.128 432.673 237.771 401.215 191.982C372.605 150.341 347.749 102.051 327.337 48.4505C296.732 -31.9135 280.235 -112.563 271.457 -180.405Z" fill="#00FF85" stroke="#00FF85" stroke-width="0.5"/>
<path d="M42.4084 -180.373L42.4082 -180.623L42.1584 -180.623L41.6864 -180.623L41.4362 -180.623L41.4364 -180.373C41.4552 -142.806 43.3625 -103.749 47.9137 -64.0683C55.26 0.0227956 68.9142 59.5714 88.5192 112.917C110.079 171.592 139.148 223.555 174.907 267.351L175.066 267.545L175.26 267.386L175.628 267.084L175.821 266.926L175.663 266.733C139.98 223.022 110.966 171.165 89.4416 112.584L89.207 112.67L89.4416 112.584C69.8614 59.3183 56.2154 -0.15323 48.8825 -64.1724L48.8725 -64.2593L48.8631 -64.2687C44.3309 -103.88 42.4272 -142.87 42.4084 -180.373Z" fill="#00FF85" stroke="#00FF85" stroke-width="0.5"/>
<path d="M26.7359 -76.2845C23.3674 -111.708 22.0652 -146.605 22.2917 -180.371L22.2934 -180.623L22.0417 -180.623L21.5697 -180.623L21.3213 -180.623L21.3197 -180.375C21.0931 -146.572 22.3961 -111.645 25.7671 -76.1807C31.933 -11.3824 44.5578 48.949 63.3035 103.143C83.919 162.752 112.233 215.734 147.453 260.605L147.608 260.803L147.805 260.646L148.173 260.354L148.368 260.199L148.214 260.004C113.06 215.218 84.8 162.334 64.2196 102.819C45.5075 48.6958 32.89 -11.5583 26.7368 -76.2846L26.7359 -76.2845Z" fill="#00FF85" stroke="#00FF85" stroke-width="0.5"/>
<path d="M92.931 -41.4378L92.931 -41.4473L92.9281 -41.4662C85.6047 -89.0822 82.2354 -135.936 81.4992 -180.377L81.4951 -180.623L81.2493 -180.623L80.7773 -180.623L80.5231 -180.623L80.5273 -180.369C81.2638 -135.889 84.644 -88.9847 91.9619 -41.3148C101.584 21.3147 117.249 79.2412 138.498 130.87L138.724 130.777L138.498 130.87C161.881 187.65 192.367 237.556 229.118 279.192L229.282 279.378L229.469 279.215L229.828 278.904L230.018 278.739L229.852 278.55C193.179 236.998 162.739 187.187 139.404 130.5C118.184 78.9559 102.548 21.1126 92.931 -41.4378Z" fill="#00FF85" stroke="#00FF85" stroke-width="0.5"/>
<path d="M62.1378 -180.384L62.1357 -180.632L61.8878 -180.632L61.4158 -180.632L61.1637 -180.632L61.1658 -180.38C61.5057 -139.258 64.1117 -96.2113 69.9754 -52.4559C78.4737 10.9091 93.1478 69.6562 113.584 122.143C136.069 179.875 165.857 230.81 202.126 273.531L202.287 273.72L202.477 273.56L202.836 273.258L203.028 273.097L202.866 272.905C166.674 230.269 136.933 179.431 114.494 121.792C94.083 69.3749 79.4272 10.7142 70.943 -52.5883L70.9139 -52.8051L70.9045 -52.8051C65.0643 -96.4344 62.477 -139.367 62.1378 -180.384Z" fill="#00FF85" stroke="#00FF85" stroke-width="0.5"/>
<path d="M4.56347 -88.8401L4.56347 -88.8495L4.56277 -88.8589C2.21284 -119.921 1.42004 -150.56 1.82587 -180.379L1.82931 -180.632L1.57589 -180.632L1.1039 -180.632L0.857353 -180.632L0.853919 -180.386C0.43846 -150.544 1.2316 -119.881 3.5922 -88.7834C8.54946 -23.2967 20.1261 37.808 37.9839 92.8508C57.6266 153.384 85.1563 207.375 119.819 253.331L119.969 253.53L120.169 253.38L120.546 253.097L120.747 252.947L120.596 252.747C85.9982 206.887 58.5117 152.994 38.9031 92.555C21.0694 37.6044 9.51853 -23.429 4.56347 -88.8401Z" fill="#00FF85" stroke="#00FF85" stroke-width="0.5"/>
<path d="M628.394 78.2804L628.394 78.2892C561.346 -6.29507 518.598 -99.0209 494.518 -161.98C493.157 -165.545 491.348 -169.806 489.261 -174.723L489.219 -174.822L489.011 -174.734L489.219 -174.822C488.445 -176.642 487.643 -178.537 486.822 -180.48L486.757 -180.632L486.591 -180.632L486.082 -180.632L485.706 -180.632L485.851 -180.286C486.692 -178.276 487.523 -176.324 488.325 -174.447L488.522 -173.984C490.544 -169.219 492.293 -165.098 493.617 -161.641C517.77 -98.4875 560.704 -5.39198 628.08 79.4449C693.644 162 767.123 217.622 846.484 244.76L846.721 244.841L846.802 244.605L846.953 244.161L847.033 243.925L846.797 243.844C767.642 216.772 694.312 161.266 628.839 78.8416L628.394 78.2804Z" fill="#00FF85" stroke="#00FF85" stroke-width="0.5"/>
<path d="M239.919 -180.409L239.895 -180.632L239.67 -180.632L239.198 -180.632L238.921 -180.632L238.95 -180.356C245.89 -114.864 259.486 -39.1349 285.113 36.823C303.81 92.2193 327.239 142.384 354.749 185.939L354.961 185.806L354.749 185.939C385.017 233.844 420.652 274.365 460.664 306.389L460.86 306.545L461.016 306.349L461.308 305.981L461.464 305.786L461.269 305.63C421.343 273.683 385.782 233.233 355.568 185.418C328.101 141.938 304.698 91.8382 286.031 36.5123C260.428 -39.3459 246.847 -114.981 239.919 -180.409Z" fill="#00FF85" stroke="#00FF85" stroke-width="0.5"/>
<path d="M172.934 -180.389L172.919 -180.623L172.685 -180.623L172.213 -180.623L171.946 -180.623L171.963 -180.357C175.627 -122.146 184.03 -57.9618 200.526 7.00719C215.436 65.7324 235.654 119.443 260.623 166.63C288.086 218.533 321.68 263.243 360.482 299.511L360.666 299.683L360.837 299.498L361.158 299.149L361.326 298.966L361.144 298.797C322.425 262.608 288.892 217.982 261.481 166.17C236.551 119.051 216.356 65.4157 201.464 6.76155C184.996 -58.1242 176.596 -122.239 172.934 -180.389Z" fill="#00FF85" stroke="#00FF85" stroke-width="0.5"/>
<path d="M190.19 -180.391L190.173 -180.623L189.941 -180.623L189.469 -180.623L189.2 -180.623L189.219 -180.355C193.638 -120.012 203.25 -52.7623 221.899 15.1968C237.791 73.111 258.849 125.945 284.49 172.226C312.689 223.139 346.832 266.802 385.973 302.004L386.16 302.172L386.327 301.985L386.639 301.636L386.805 301.45L386.619 301.283C347.561 266.16 313.49 222.58 285.333 171.757C259.733 125.544 238.699 72.7851 222.835 14.9419C204.215 -52.9321 194.607 -120.111 190.19 -180.391Z" fill="#00FF85" stroke="#00FF85" stroke-width="0.5"/>
<path d="M411.783 303.241C372.416 269.176 337.819 226.647 308.956 176.828L308.959 176.826C282.708 131.518 260.871 79.6359 244.035 22.6223C223.17 -48.0797 212.288 -118.2 207.078 -180.403L207.059 -180.632L206.829 -180.632L206.357 -180.632L206.085 -180.632L206.108 -180.361C211.329 -118.095 222.216 -47.8931 243.103 22.8958C259.949 79.9802 281.828 131.928 308.111 177.313L308.304 177.2L308.111 177.313C337.028 227.226 371.69 269.842 411.144 303.978L411.333 304.141L411.496 303.953L411.808 303.595L411.972 303.405L411.783 303.241Z" fill="#00FF85" stroke="#00FF85" stroke-width="0.5"/>
<path d="M332.413 181.446L332.413 181.436L332.377 181.377C305.503 136.982 282.874 85.987 265.113 29.8125C241.917 -43.5477 229.714 -116.486 223.664 -180.406L223.642 -180.632L223.415 -180.632L222.943 -180.632L222.668 -180.632L222.694 -180.359C228.756 -116.375 240.964 -43.3536 264.193 30.1048C281.974 86.3498 304.637 137.411 331.553 181.881L331.757 181.757L331.553 181.881C361.16 230.785 396.322 272.363 436.06 305.443L436.251 305.602L436.411 305.412L436.713 305.053L436.875 304.861L436.682 304.7C397.036 271.711 361.959 230.244 332.413 181.446Z" fill="#00FF85" stroke="#00FF85" stroke-width="0.5"/>
<path d="M100.511 -180.379L100.505 -180.623L100.261 -180.623L99.7892 -180.623L99.5328 -180.623L99.5393 -180.367C100.738 -132.728 104.968 -82.1162 113.892 -30.6734C124.618 31.2016 141.238 88.3077 163.289 139.059C187.541 194.877 218.698 243.746 255.912 284.316L256.081 284.5L256.265 284.331L256.614 284.011L256.798 283.842L256.629 283.657C219.494 243.18 188.395 194.396 164.182 138.672C142.167 87.9986 125.568 30.9691 114.856 -30.8437L114.82 -31.051L114.811 -31.051C105.927 -82.3664 101.699 -132.853 100.511 -180.379Z" fill="#00FF85" stroke="#00FF85" stroke-width="0.5"/>
<path d="M155.357 -180.386L155.345 -180.623L155.107 -180.623L154.635 -180.623L154.372 -180.623L154.386 -180.36C157.341 -124.487 164.602 -63.5007 179.04 -1.68217C192.939 57.8541 212.297 112.423 236.568 160.515C263.266 213.409 296.293 259.166 334.736 296.5L334.915 296.674L335.089 296.495L335.42 296.155L335.594 295.976L335.415 295.802C297.054 258.538 264.096 212.875 237.439 160.073C213.198 112.059 193.871 57.5654 179.989 -1.89961C165.569 -63.6463 158.321 -124.565 155.357 -180.386Z" fill="#00FF85" stroke="#00FF85" stroke-width="0.5"/>
<path d="M136.666 -20.6787L136.666 -20.6882L136.662 -20.7117C126.035 -75.6995 120.863 -129.85 119.146 -180.391L119.137 -180.632L118.896 -180.632L118.424 -180.632L118.165 -180.632L118.174 -180.374C119.892 -129.783 125.066 -75.5874 135.708 -20.532C147.521 40.5792 165.075 96.846 187.891 146.72C212.984 201.576 244.792 249.408 282.432 288.893L282.603 289.073L282.784 288.902L283.124 288.581L283.307 288.409L283.133 288.227C245.565 248.824 213.814 201.078 188.771 146.324C165.995 96.5341 148.463 40.3517 136.666 -20.6787Z" fill="#00FF85" stroke="#00FF85" stroke-width="0.5"/>
<path d="M137.431 -180.384L137.42 -180.623L137.181 -180.623L136.709 -180.623L136.448 -180.623L136.459 -180.362C138.772 -127.027 144.947 -69.3696 157.43 -10.8524C170.301 49.476 188.762 104.903 212.324 153.882C238.229 207.757 270.661 254.551 308.716 292.96L308.89 293.136L309.068 292.964L309.408 292.634L309.589 292.458L309.411 292.278C271.437 253.95 239.064 207.241 213.199 153.458C189.685 104.548 171.236 49.1965 158.382 -11.0605C145.915 -69.5078 139.743 -127.108 137.431 -180.384Z" fill="#00FF85" stroke="#00FF85" stroke-width="0.5"/>
<path d="M618.052 -157.523L617.867 -157.398L618.052 -157.524C613.473 -164.294 608.125 -172.228 603.258 -180.5L603.186 -180.623L603.043 -180.623L602.495 -180.623L602.059 -180.623L602.28 -180.246C607.202 -171.856 612.625 -163.825 617.25 -156.979C620.008 -152.895 622.384 -149.373 624.231 -146.407C656.938 -93.9288 711.734 -17.8563 787.025 46.542C860.297 109.206 935.963 146.338 1011.94 156.869L1012.18 156.903L1012.22 156.656L1012.29 156.185L1012.32 155.937L1012.07 155.902C936.309 145.397 860.804 108.365 787.662 45.8037C712.461 -18.5117 657.735 -94.5006 625.061 -146.926L624.988 -147.044L624.978 -147.044C623.127 -150.003 620.771 -153.495 618.052 -157.523Z" fill="#00FF85" stroke="#00FF85" stroke-width="0.5"/>
<path d="M756.565 -174.691L756.385 -174.517L756.565 -174.691C754.891 -176.42 752.897 -178.374 750.63 -180.553L750.558 -180.623L750.457 -180.623L749.777 -180.623L749.158 -180.623L749.604 -180.193C752.011 -177.873 754.123 -175.82 755.865 -174.014L755.866 -174.013C794.825 -133.72 857.847 -76.7083 936.805 -33.938C1013.65 7.69167 1087.76 26.2188 1157.08 21.1414L1157.33 21.1231L1157.31 20.8721L1157.28 20.4007L1157.26 20.1531L1157.01 20.1713C1087.89 25.2401 1013.97 6.75613 937.27 -34.7925C858.42 -77.5109 795.485 -134.446 756.565 -174.691Z" fill="#00FF85" stroke="#00FF85" stroke-width="0.5"/>
<path d="M1179.77 -6.64538C1112.13 0.929168 1038.87 -14.4246 962.022 -52.3128L962.023 -52.317C884.57 -90.5106 821.626 -142.685 781.762 -180.563L781.69 -180.632L781.59 -180.632L780.901 -180.632L780.275 -180.632L780.729 -180.201C820.623 -142.256 883.787 -89.8094 961.594 -51.4442C1038.59 -13.4838 1112.03 1.92032 1179.88 -5.67701L1180.13 -5.70505L1180.1 -5.95528L1180.04 -6.42676L1180.01 -6.67298L1179.77 -6.64538Z" fill="#00FF85" stroke="#00FF85" stroke-width="0.5"/>
<path d="M766.074 -180.553L766.001 -180.623L765.901 -180.623L765.221 -180.623L764.596 -180.623L765.049 -180.192C765.86 -179.419 766.632 -178.676 767.328 -177.972L767.329 -177.97C806.704 -138.79 870.237 -83.4946 949.289 -42.6014L949.404 -42.8235L949.289 -42.6014C1026.23 -2.81114 1100.02 14.1498 1168.61 7.78887L1168.86 7.76562L1168.84 7.51504L1168.79 7.04356L1168.77 6.79662L1168.52 6.81953C1100.13 13.1602 1026.53 -3.75937 949.736 -43.4699C870.792 -84.2935 807.338 -139.523 768.012 -178.664C767.407 -179.269 766.754 -179.902 766.074 -180.553Z" fill="#00FF85" stroke="#00FF85" stroke-width="0.5"/>
<path d="M864.861 236.601C786.047 211.324 712.438 157.852 646.082 77.6535L646.091 77.6535L645.753 77.2443C577.449 -5.43574 533.187 -96.7736 508.072 -158.835C506.669 -162.307 504.819 -166.444 502.685 -171.214L502.575 -171.46C501.301 -174.308 499.951 -177.334 498.573 -180.473L498.507 -180.623L498.344 -180.623L497.825 -180.623L497.443 -180.623L497.596 -180.273C499.003 -177.056 500.381 -173.972 501.684 -171.068C501.684 -171.067 501.684 -171.067 501.684 -171.067L501.944 -170.488C504.015 -165.857 505.808 -161.85 507.165 -158.478L507.165 -158.478C532.3 -96.352 576.613 -4.92572 644.999 77.8645C711.545 158.421 785.413 212.146 864.566 237.53L864.806 237.606L864.881 237.366L865.023 236.914L865.097 236.677L864.861 236.601Z" fill="#00FF85" stroke="#00FF85" stroke-width="0.5"/>
<path d="M745.042 -170.915L745.042 -170.916C742.848 -173.267 740.098 -176.024 736.908 -179.211L736.241 -179.877L735.568 -180.55L735.494 -180.623L735.391 -180.623L734.721 -180.623L734.117 -180.623L734.544 -180.196C734.732 -180.008 734.92 -179.819 735.107 -179.631C735.481 -179.256 735.853 -178.882 736.224 -178.517C739.416 -175.329 742.159 -172.589 744.336 -170.245L744.336 -170.245C782.861 -128.848 845.326 -70.1103 924.152 -25.4347C1000.86 18.0438 1075.27 38.1843 1145.3 34.3905L1145.55 34.3769L1145.53 34.1258L1145.5 33.6544L1145.49 33.4063L1145.24 33.4197C1075.43 37.1978 1001.2 17.1211 924.625 -26.2846C845.907 -70.8977 783.519 -129.558 745.042 -170.915Z" fill="#00FF85" stroke="#00FF85" stroke-width="0.5"/>
<path d="M573.095 -147.914C602.714 -91.0879 653.289 -8.11168 725.972 64.4169C796.703 134.994 871.942 179.371 949.615 196.291L949.858 196.344L949.912 196.101L950.016 195.639L950.071 195.394L949.825 195.34C872.362 178.464 797.279 134.194 726.665 63.7329C654.078 -8.70886 603.56 -91.5896 573.963 -148.362C572.28 -151.592 570.097 -155.434 567.567 -159.874C564.056 -166.051 560.046 -173.109 556.254 -180.496L556.184 -180.632L556.032 -180.632L555.503 -180.632L555.094 -180.632L555.28 -180.268C559.107 -172.785 563.168 -165.633 566.717 -159.391L567.093 -158.73C569.455 -154.568 571.501 -150.964 573.095 -147.914ZM573.095 -147.914L573.305 -148.023L573.095 -147.914C573.095 -147.914 573.095 -147.914 573.095 -147.914Z" fill="#00FF85" stroke="#00FF85" stroke-width="0.5"/>
<path d="M579.483 -158.142L579.698 -158.27L579.483 -158.142C582.07 -153.794 584.295 -150.045 586.02 -146.891C616.452 -91.1403 668.141 -9.89005 741.552 60.6013C812.981 129.198 888.382 171.735 965.668 187.023L965.911 187.071L965.961 186.827L966.055 186.365L966.106 186.119L965.859 186.07C888.783 170.824 813.541 128.382 742.228 59.9012C668.915 -10.5043 617.283 -91.6691 586.884 -147.357L586.813 -147.487L586.794 -147.487C585.166 -150.463 583.097 -153.948 580.719 -157.953L580.309 -158.643L580.094 -158.515L580.309 -158.643C576.438 -165.15 571.986 -172.651 567.845 -180.49L567.775 -180.623L567.624 -180.623L567.095 -180.623L566.681 -180.623L566.874 -180.256C571.059 -172.31 575.575 -164.714 579.483 -158.142Z" fill="#00FF85" stroke="#00FF85" stroke-width="0.5"/>
<path d="M579.539 -180.493L579.468 -180.623L579.32 -180.623L578.782 -180.623L578.361 -180.623L578.562 -180.253C583.022 -172.057 587.891 -164.216 592.082 -157.466L592.163 -157.336L592.35 -157.035C594.915 -152.899 597.131 -149.327 598.851 -146.312C630.076 -91.6454 682.842 -12.1116 756.914 56.3424C829.005 122.958 904.529 163.675 981.399 177.358L981.644 177.402L981.689 177.157L981.774 176.695L981.819 176.448L981.572 176.404C904.902 162.76 829.537 122.137 757.574 55.6357C683.591 -12.7334 630.883 -92.1729 599.691 -146.786L599.483 -146.667L599.691 -146.786C597.914 -149.893 595.627 -153.584 592.984 -157.845L592.839 -158.08C588.708 -164.742 583.93 -172.447 579.539 -180.493Z" fill="#00FF85" stroke="#00FF85" stroke-width="0.5"/>
<path d="M554.769 -161.52L554.55 -161.401L554.769 -161.52C551.654 -167.244 548.144 -173.709 544.767 -180.494L544.698 -180.632L544.543 -180.632L544.015 -180.632L543.612 -180.632L543.791 -180.271C547.201 -173.392 550.762 -166.844 553.915 -161.055C556.379 -156.527 558.501 -152.628 560.122 -149.352L560.122 -149.351C588.901 -91.4504 638.304 -6.76724 710.223 67.808C780.207 140.385 855.248 186.601 933.27 205.172L933.511 205.23L933.57 204.989L933.684 204.527L933.744 204.282L933.499 204.224C855.68 185.709 780.798 139.595 710.932 67.1405L710.932 67.1404C639.109 -7.34718 589.752 -91.9344 560.994 -149.781C559.394 -153.007 557.323 -156.819 554.927 -161.23L554.769 -161.52Z" fill="#00FF85" stroke="#00FF85" stroke-width="0.5"/>
<path d="M916.889 212.825C838.771 192.648 764.135 144.698 695.077 70.2898L695.077 70.2804L695.011 70.2085C623.999 -6.32484 575.849 -92.6092 547.96 -151.522C546.372 -154.874 544.302 -158.867 541.905 -163.477C541.905 -163.477 541.905 -163.477 541.905 -163.477L541.764 -163.749C539.119 -168.856 536.182 -174.528 533.308 -180.472L533.24 -180.613L533.083 -180.613L532.564 -180.613L532.166 -180.613L532.339 -180.255C535.305 -174.112 538.337 -168.263 541.055 -163.03C543.453 -158.418 545.509 -154.433 547.093 -151.1C575.003 -92.1332 623.207 -5.75267 694.304 70.8785C763.495 145.445 838.308 193.52 916.651 213.762L916.895 213.825L916.956 213.58L917.069 213.128L917.129 212.887L916.889 212.825Z" fill="#00FF85" stroke="#00FF85" stroke-width="0.5"/>
<path d="M520.61 -155.673C546.698 -94.5937 592.352 -4.83675 661.692 75.8974C729.164 154.454 803.391 206.283 882.299 229.94L882.54 230.012L882.611 229.771L882.743 229.318L882.812 229.08L882.575 229.009C803.888 205.43 729.834 153.728 662.481 75.3401L662.481 75.3307L662.421 75.2604C593.164 -5.37386 547.562 -95.0334 521.494 -156.058C520.01 -159.533 518.063 -163.668 515.808 -168.457L515.596 -168.357L515.808 -168.457C514.042 -172.201 512.136 -176.244 510.221 -180.476L510.154 -180.623L509.993 -180.623L509.474 -180.623L509.086 -180.623L509.246 -180.27C511.201 -175.958 513.137 -171.846 514.931 -168.045C517.187 -163.254 519.13 -159.129 520.61 -155.673ZM520.61 -155.673L520.839 -155.771L520.61 -155.673C520.61 -155.673 520.61 -155.673 520.61 -155.673ZM882.371 229.701L882.131 229.631L882.131 229.629C882.211 229.653 882.291 229.677 882.371 229.701ZM882.371 229.701L882.443 229.461C882.442 229.461 882.441 229.461 882.441 229.461L882.371 229.701ZM509.474 -180.373L509.748 -180.373C509.733 -180.407 509.717 -180.442 509.701 -180.476L509.474 -180.373ZM509.474 -180.373L509.474 -180.123L509.587 -180.123C509.549 -180.206 509.512 -180.289 509.474 -180.373Z" fill="#00FF85" stroke="#00FF85" stroke-width="0.5"/>
<path d="M899.892 221.068C821.589 199.228 747.341 149.528 679.187 73.3254L679.206 73.3254L678.834 72.9088C608.671 -5.67021 561.776 -93.6516 534.784 -153.62C533.252 -157.029 531.239 -161.098 528.908 -165.802C526.671 -170.319 524.218 -175.277 521.783 -180.479L521.716 -180.623L521.557 -180.623L521.038 -180.623L520.645 -180.623L520.811 -180.267C523.151 -175.272 525.507 -170.496 527.664 -166.126L528.035 -165.373L528.035 -165.373L528.073 -165.296C530.38 -160.631 532.375 -156.597 533.894 -153.226C560.907 -93.1939 607.855 -5.12502 678.102 73.553C746.462 150.11 820.991 200.062 899.635 222.002L899.878 222.069L899.944 221.826L900.067 221.374L900.132 221.134L899.892 221.068Z" fill="#00FF85" stroke="#00FF85" stroke-width="0.5"/>
<path d="M605.565 -157.481L605.565 -157.482C601.156 -164.281 596.025 -172.224 591.338 -180.505L591.266 -180.632L591.12 -180.632L590.582 -180.632L590.154 -180.632L590.364 -180.259C595.063 -171.93 600.227 -163.946 604.651 -157.107L604.749 -156.955L604.959 -157.091L604.749 -156.955C607.45 -152.786 609.779 -149.188 611.588 -146.157C643.569 -92.5843 697.363 -14.7764 772.078 51.6498C844.783 116.285 920.392 155.2 996.829 167.298L997.075 167.337L997.115 167.091L997.19 166.629L997.231 166.381L996.983 166.342C920.756 154.281 845.308 115.459 772.722 50.9272C698.106 -15.4149 644.371 -93.1289 612.424 -146.648C610.74 -149.478 608.601 -152.786 606.146 -156.583L605.565 -157.481Z" fill="#00FF85" stroke="#00FF85" stroke-width="0.5"/>
<path d="M885.65 -1.83563C807.576 -52.2379 747.073 -116.062 710.057 -160.746L710.048 -160.765L710.029 -160.787C707.921 -163.328 705.255 -166.32 702.179 -169.771L701.992 -169.604L702.179 -169.771C699.233 -173.071 695.997 -176.7 692.724 -180.535L692.649 -180.623L692.533 -180.623L691.91 -180.623L691.369 -180.623L691.72 -180.211C695.092 -176.257 698.426 -172.512 701.456 -169.117L701.718 -168.824C704.686 -165.496 707.253 -162.617 709.285 -160.157L709.286 -160.157C746.337 -115.421 806.923 -51.5054 885.124 -1.02891C961.221 48.0902 1036.33 73.1368 1108.37 73.3916L1108.62 73.3925L1108.62 73.1416L1108.62 72.6701L1108.62 72.421L1108.37 72.4201C1036.55 72.1657 961.612 47.1884 885.65 -1.83563Z" fill="#00FF85" stroke="#00FF85" stroke-width="0.5"/>
<path d="M911.846 -17.9305L911.836 -17.9399L911.809 -17.9558C833.261 -64.4919 771.458 -124.868 733.444 -167.338C731.308 -169.723 728.621 -172.511 725.524 -175.725L725.394 -175.86L724.846 -176.429C723.57 -177.754 722.245 -179.128 720.892 -180.545L720.819 -180.623L720.712 -180.623L720.06 -180.623L719.477 -180.623L719.879 -180.2C721.541 -178.455 723.156 -176.776 724.695 -175.182C727.848 -171.91 730.564 -169.084 732.722 -166.684C770.784 -124.174 832.654 -63.7104 911.318 -17.1107C987.86 28.2354 1062.54 49.9893 1133.26 47.5261L1133.51 47.5174L1133.5 47.2663L1133.48 46.7948L1133.47 46.5463L1133.22 46.555C1062.72 49.0231 988.232 27.3309 911.846 -17.9305Z" fill="#00FF85" stroke="#00FF85" stroke-width="0.5"/>
<path d="M685.94 -155.688L685.94 -155.676C684.064 -158.099 681.762 -160.892 679.148 -164.062L678.755 -164.539L678.755 -164.539C674.799 -169.33 670.318 -174.767 665.932 -180.533L665.857 -180.632L665.733 -180.632L665.139 -180.632L664.635 -180.632L664.94 -180.231C669.408 -174.352 673.98 -168.794 678.001 -163.929C681.004 -160.297 683.587 -157.161 685.613 -154.507L685.614 -154.506C721.56 -107.554 780.691 -40.1587 858.269 14.2416C933.761 67.1808 1009.19 95.5955 1082.47 98.6626L1082.72 98.6731L1082.73 98.4228L1082.75 97.9514L1082.76 97.702L1082.51 97.6916C1009.44 94.6294 934.188 66.2969 858.829 13.4456C781.356 -40.8866 722.298 -108.192 686.388 -155.103L685.94 -155.688Z" fill="#00FF85" stroke="#00FF85" stroke-width="0.5"/>
<path d="M872.325 5.90857C794.569 -46.4273 734.778 -111.969 698.296 -157.754L698.296 -157.763L698.242 -157.832C696.162 -160.439 693.534 -163.507 690.495 -167.051L690.306 -166.889L690.495 -167.051C686.993 -171.135 683.078 -175.705 679.172 -180.539L679.097 -180.632L678.978 -180.632L678.373 -180.632L677.851 -180.632L678.179 -180.225C682.175 -175.262 686.179 -170.582 689.757 -166.415L690.033 -166.093C692.957 -162.683 695.482 -159.738 697.483 -157.228C733.996 -111.389 793.873 -45.7285 871.781 6.70999C947.595 57.7344 1022.88 84.4509 1095.55 86.1025L1095.8 86.1083L1095.8 85.8525L1095.8 85.3811L1095.8 85.1367L1095.56 85.1311C1023.11 83.4917 947.994 56.8368 872.325 5.90857Z" fill="#00FF85" stroke="#00FF85" stroke-width="0.5"/>
<path d="M898.805 -9.81565L898.803 -9.81326C820.477 -58.2809 759.301 -120.388 721.77 -163.959C719.633 -166.443 716.939 -169.351 713.815 -172.716C711.55 -175.158 709.115 -177.788 706.614 -180.55L706.54 -180.632L706.429 -180.632L705.797 -180.632L705.234 -180.632L705.611 -180.215C708.208 -177.337 710.749 -174.592 713.099 -172.056L713.266 -171.875C716.311 -168.584 718.941 -165.743 721.033 -163.33C758.604 -119.707 819.85 -57.5182 898.297 -8.98498C974.63 38.2476 1049.54 61.6337 1120.93 60.5107L1121.18 60.5068L1121.18 60.2607L1121.18 59.7893L1121.18 59.5353L1120.92 59.5393C1049.74 60.6699 975.012 37.3324 898.805 -9.81565Z" fill="#00FF85" stroke="#00FF85" stroke-width="0.5"/>
<path d="M637.827 -147.223L637.837 -147.223L637.585 -147.609C635.685 -150.528 633.256 -153.983 630.444 -157.98C625.77 -164.619 620.309 -172.383 615.32 -180.504L615.247 -180.623L615.107 -180.623L614.55 -180.623L614.104 -180.623L614.337 -180.242C619.361 -172.037 624.872 -164.198 629.579 -157.503L629.638 -157.419L629.638 -157.419C632.452 -153.429 634.866 -149.982 636.76 -147.073C670.167 -95.6977 725.916 -21.3511 801.746 41.0288C875.547 101.731 951.232 137.08 1026.72 146.073L1026.96 146.102L1026.99 145.855L1027.05 145.383L1027.08 145.135L1026.83 145.105C951.559 136.135 876.036 100.875 802.366 40.2749C726.817 -21.867 671.227 -95.9145 637.827 -147.223Z" fill="#00FF85" stroke="#00FF85" stroke-width="0.5"/>
<path d="M642.732 -158.861L642.544 -158.723L642.732 -158.861L642.61 -159.027C637.964 -165.375 632.553 -172.766 627.561 -180.508L627.487 -180.623L627.35 -180.623L626.794 -180.623L626.336 -180.623L626.583 -180.238C631.676 -172.309 637.212 -164.741 641.951 -158.282L642.282 -157.83C645.003 -154.117 647.357 -150.905 649.205 -148.172L649.205 -148.172C683.291 -97.9004 739.938 -25.2891 816.278 35.0818C890.56 93.8312 966.237 127.425 1041.2 134.899L1041.45 134.924L1041.48 134.676L1041.52 134.204L1041.55 133.955L1041.3 133.93C966.545 126.477 891.041 92.9706 816.88 34.3218C740.652 -25.9682 684.057 -98.497 650.006 -148.716C648.207 -151.372 645.945 -154.467 643.343 -158.024L642.732 -158.861Z" fill="#00FF85" stroke="#00FF85" stroke-width="0.5"/>
<path d="M662.368 -150.306L662.368 -150.315L662.322 -150.38C660.346 -153.176 657.832 -156.48 654.925 -160.289C650.365 -166.267 645.073 -173.212 640.112 -180.513L640.038 -180.623L639.906 -180.623L639.339 -180.623L638.868 -180.623L639.132 -180.233C644.092 -172.904 649.391 -165.944 653.965 -159.936L654.15 -159.693L654.15 -159.693C657.059 -155.882 659.566 -152.595 661.526 -149.809L661.527 -149.809C696.255 -100.641 753.78 -29.7646 830.574 28.6066C905.3 85.4131 980.93 117.262 1055.35 123.236L1055.6 123.256L1055.62 123.006L1055.65 122.535L1055.67 122.286L1055.43 122.266C981.21 116.301 905.754 84.5382 831.159 27.8314C754.502 -30.4439 697.066 -101.192 662.368 -150.306Z" fill="#00FF85" stroke="#00FF85" stroke-width="0.5"/>
<path d="M674.287 -152.815L674.277 -152.805C672.291 -155.485 669.8 -158.635 666.93 -162.254L666.9 -162.292C662.602 -167.715 657.661 -173.948 652.938 -180.519L652.863 -180.623L652.735 -180.623L652.159 -180.623L651.672 -180.623L651.955 -180.227C656.765 -173.517 661.8 -167.157 666.18 -161.65C669.135 -157.925 671.681 -154.713 673.679 -152.002C709.03 -103.937 767.377 -34.8062 844.577 21.5749C919.71 76.4477 995.255 106.561 1069.12 111.072L1069.37 111.087L1069.38 110.837L1069.41 110.366L1069.42 110.116L1069.17 110.101C995.516 105.597 920.146 75.5588 845.155 20.7845C768.059 -35.5274 709.775 -104.568 674.459 -152.581L674.287 -152.815Z" fill="#00FF85" stroke="#00FF85" stroke-width="0.5"/>
</svg>
