<svg width="100" height="97" viewBox="0 0 100 97" fill="none" xmlns="http://www.w3.org/2000/svg">
<path id="XIDE" fill-rule="evenodd" clip-rule="evenodd" d="M91.8918 27.2808V0.0065918H96.969V27.2808H91.8918ZM10.3296 12.7604L1.79999 27.4833V27.4864H7.42794L13.0959 17.6343L18.7639 27.4864H24.3918L15.8806 12.7635L23.0933 0.209179H17.5607L13.099 7.93257L8.65262 0.209179H3.09851L10.3296 12.7604ZM99.9 96.3066V69.0324H82.5761V73.71H94.8259V81.2248H85.3239V85.9024H94.8259V91.629H82.9761V96.3066H99.9ZM0.844727 96.3068H28.206H28.2122V87.7981C28.2122 86.1449 27.9383 84.5806 27.3906 83.1083C26.8429 81.636 26.0336 80.2956 24.9659 79.0902C23.8981 77.8847 22.4704 76.9277 20.6826 76.2192C18.8948 75.5107 16.8455 75.1579 14.5284 75.1579C12.2114 75.1579 10.1621 75.5107 8.37431 76.2192C6.58653 76.9277 5.15877 77.8847 4.09103 79.0902C3.02021 80.2956 2.21402 81.636 1.6663 83.1083C1.11858 84.5806 0.844727 86.1418 0.844727 87.7981V96.3068ZM23.5135 89.3778V91.2458H5.54341V89.3778C5.54341 88.1816 5.6788 87.0835 5.95266 86.0805C6.22652 85.0775 6.67269 84.1144 7.29734 83.1942C7.9189 82.274 8.8451 81.5471 10.0729 81.0134C11.3006 80.4796 12.7868 80.2128 14.5284 80.2128C16.2701 80.2128 17.7563 80.4796 18.984 81.0134C20.2118 81.5471 21.1349 82.274 21.7596 83.1942C22.3811 84.1144 22.8304 85.0775 23.1042 86.0805C23.3781 87.0865 23.5135 88.1846 23.5135 89.3778Z" fill="white"/>
</svg>
